<svg xmlns="http://www.w3.org/2000/svg" xmlns:xlink="http://www.w3.org/1999/xlink" width="300" zoomAndPan="magnify" viewBox="0 0 224.87999 225" height="300" preserveAspectRatio="xMidYMid meet" version="1.0"><defs><g/></defs><g fill="#ffd600" fill-opacity="1"><g transform="translate(27.891226, 141.199406)"><g><path d="M 6.265625 0 L 6.265625 -53.53125 L 24.734375 -53.53125 L 24.734375 -47.90625 L 24.9375 -47.90625 C 29.738281 -52.707031 34.851562 -55.109375 40.28125 -55.109375 C 42.925781 -55.109375 45.550781 -54.757812 48.15625 -54.0625 C 50.769531 -53.363281 53.273438 -52.28125 55.671875 -50.8125 C 58.078125 -49.351562 60.023438 -47.285156 61.515625 -44.609375 C 63.015625 -41.929688 63.765625 -38.820312 63.765625 -35.28125 L 63.765625 0 L 45.296875 0 L 45.296875 -30.265625 C 45.296875 -33.046875 44.40625 -35.476562 42.625 -37.5625 C 40.851562 -39.65625 38.539062 -40.703125 35.6875 -40.703125 C 32.90625 -40.703125 30.382812 -39.625 28.125 -37.46875 C 25.863281 -35.3125 24.734375 -32.910156 24.734375 -30.265625 L 24.734375 0 Z M 6.265625 0 "/></g></g></g><g fill="#ffd600" fill-opacity="1"><g transform="translate(91.656132, 141.199406)"><g><path d="M 9.390625 -53.53125 L 9.390625 -64.90625 C 9.460938 -72.90625 11.34375 -79.304688 15.03125 -84.109375 C 18.71875 -88.910156 23.832031 -91.3125 30.375 -91.3125 C 33.15625 -91.3125 35.8125 -90.910156 38.34375 -90.109375 C 40.882812 -89.316406 42.710938 -88.5 43.828125 -87.65625 L 45.609375 -86.515625 L 39.140625 -73.46875 C 37.460938 -74.445312 35.617188 -74.9375 33.609375 -74.9375 C 31.304688 -74.9375 29.769531 -74.148438 29 -72.578125 C 28.238281 -71.015625 27.859375 -68.285156 27.859375 -64.390625 L 27.859375 -53.53125 L 40.171875 -53.53125 L 40.171875 -39.453125 L 27.859375 -39.453125 L 27.859375 0 L 9.390625 0 L 9.390625 -39.453125 L 1.671875 -39.453125 L 1.671875 -53.53125 Z M 9.390625 -53.53125 "/></g></g></g><g fill="#ffd600" fill-opacity="1"><g transform="translate(125.573642, 141.199406)"><g><path d="M 23.6875 -53.53125 L 23.6875 -28.078125 C 23.6875 -22.785156 24.484375 -19.023438 26.078125 -16.796875 C 27.679688 -14.578125 30.394531 -13.46875 34.21875 -13.46875 C 38.050781 -13.46875 40.765625 -14.578125 42.359375 -16.796875 C 43.960938 -19.023438 44.765625 -22.785156 44.765625 -28.078125 L 44.765625 -53.53125 L 63.234375 -53.53125 L 63.234375 -23.578125 C 63.234375 -14.679688 60.921875 -8.265625 56.296875 -4.328125 C 51.671875 -0.398438 44.3125 1.5625 34.21875 1.5625 C 24.132812 1.5625 16.78125 -0.398438 12.15625 -4.328125 C 7.53125 -8.265625 5.21875 -14.679688 5.21875 -23.578125 L 5.21875 -53.53125 Z M 23.6875 -53.53125 "/></g></g></g></svg>